<?xml version="1.0" encoding="UTF-8" standalone="no" ?>
<COLLADA xmlns="http://www.collada.org/2005/11/COLLADASchema" version="1.4.1">
  <asset>
    <contributor>
      <author>Assimp</author>
      <authoring_tool>Assimp Exporter</authoring_tool>
    </contributor>
    <created>2026-07-22T10:47:59</created>
    <modified>2026-07-22T10:47:59</modified>
    <unit name="meter" meter="1" />
    <up_axis>Y_UP</up_axis>
  </asset>
  <library_images>
  </library_images>
  <library_effects>
    <effect id="DefaultMaterial-fx" name="DefaultMaterial">
      <profile_COMMON>
        <technique sid="standard">
          <phong>
            <ambient>
              <color sid="ambient">0.0500000007   0.0500000007   0.0500000007   1</color>
            </ambient>
            <diffuse>
              <color sid="diffuse">1   1   1   1</color>
            </diffuse>
            <specular>
              <color sid="specular">1   1   1   1</color>
            </specular>
          </phong>
        </technique>
      </profile_COMMON>
    </effect>
  </library_effects>
  <library_materials>
    <material id="DefaultMaterial" name="DefaultMaterial">
      <instance_effect url="#DefaultMaterial-fx"/>
    </material>
  </library_materials>
  <library_geometries>
    <geometry id="mesh_0" name="" >
      <mesh>
        <source id="mesh_0-positions" name="mesh_0-positions">
          <float_array id="mesh_0-positions-array" count="648"> -0.125 -0.0450000018 1.9000001 -0.125 -0.0450000018 1.94500005 -0.125 0.0450000018 1.94500005 -0.125 -0.0450000018 1.9000001 -0.125 0.0450000018 1.94500005 -0.125 0.0450000018 1.9000001 -0.125 0.0450000018 1.9000001 -0.125 0.0450000018 1.94500005 0.360000014 0.0450000018 1.94500005 -0.125 0.0450000018 1.9000001 0.360000014 0.0450000018 1.94500005 0.360000014 0.0450000018 1.9000001 0.360000014 0.0450000018 1.9000001 0.360000014 0.0450000018 1.94500005 0.360000014 -0.0450000018 1.94500005 0.360000014 0.0450000018 1.9000001 0.360000014 -0.0450000018 1.94500005 0.360000014 -0.0450000018 1.9000001 0.360000014 -0.0450000018 1.9000001 0.360000014 -0.0450000018 1.94500005 -0.125 -0.0450000018 1.94500005 0.360000014 -0.0450000018 1.9000001 -0.125 -0.0450000018 1.94500005 -0.125 -0.0450000018 1.9000001 -0.125 0.0450000018 1.9000001 0.360000014 0.0450000018 1.9000001 0.360000014 -0.0450000018 1.9000001 -0.125 0.0450000018 1.9000001 0.360000014 -0.0450000018 1.9000001 -0.125 -0.0450000018 1.9000001 0.360000014 0.0450000018 1.94500005 -0.125 0.0450000018 1.94500005 -0.125 -0.0450000018 1.94500005 0.360000014 0.0450000018 1.94500005 -0.125 -0.0450000018 1.94500005 0.360000014 -0.0450000018 1.94500005 -0.449999988 -0.449999988 0 -0.449999988 -0.449999988 0.900000036 -0.449999988 0.449999988 0.900000036 -0.449999988 -0.449999988 0 -0.449999988 0.449999988 0.900000036 -0.449999988 0.449999988 0 -0.449999988 0.449999988 0 -0.449999988 0.449999988 0.900000036 0.449999988 0.449999988 0.900000036 -0.449999988 0.449999988 0 0.449999988 0.449999988 0.900000036 0.449999988 0.449999988 0 0.449999988 0.449999988 0 0.449999988 0.449999988 0.900000036 0.449999988 -0.449999988 0.900000036 0.449999988 0.449999988 0 0.449999988 -0.449999988 0.900000036 0.449999988 -0.449999988 0 0.449999988 -0.449999988 0 0.449999988 -0.449999988 0.900000036 -0.449999988 -0.449999988 0.900000036 0.449999988 -0.449999988 0 -0.449999988 -0.449999988 0.900000036 -0.449999988 -0.449999988 0 -0.449999988 0.449999988 0 0.449999988 0.449999988 0 0.449999988 -0.449999988 0 -0.449999988 0.449999988 0 0.449999988 -0.449999988 0 -0.449999988 -0.449999988 0 0.449999988 0.449999988 0.900000036 -0.449999988 0.449999988 0.900000036 -0.449999988 -0.449999988 0.900000036 0.449999988 0.449999988 0.900000036 -0.449999988 -0.449999988 0.900000036 0.449999988 -0.449999988 0.900000036 -0.214999974 -0.450000018 0.899999976 -0.214999974 -0.450000018 1.89999998 -0.214999974 -0.405000031 1.89999998 -0.214999974 -0.450000018 0.899999976 -0.214999974 -0.405000031 1.89999998 -0.214999974 -0.405000031 0.899999976 -0.214999974 -0.405000031 0.899999976 -0.214999974 -0.405000031 1.89999998 -0.12499997 -0.405000031 1.89999998 -0.214999974 -0.405000031 0.899999976 -0.12499997 -0.405000031 1.89999998 -0.12499997 -0.405000031 0.899999976 -0.12499997 -0.405000031 0.899999976 -0.12499997 -0.405000031 1.89999998 -0.12499997 -0.450000018 1.89999998 -0.12499997 -0.405000031 0.899999976 -0.12499997 -0.450000018 1.89999998 -0.12499997 -0.450000018 0.899999976 -0.12499997 -0.450000018 0.899999976 -0.12499997 -0.450000018 1.89999998 -0.214999974 -0.450000018 1.89999998 -0.12499997 -0.450000018 0.899999976 -0.214999974 -0.450000018 1.89999998 -0.214999974 -0.450000018 0.899999976 -0.214999974 -0.405000031 0.899999976 -0.12499997 -0.405000031 0.899999976 -0.12499997 -0.450000018 0.899999976 -0.214999974 -0.405000031 0.899999976 -0.12499997 -0.450000018 0.899999976 -0.214999974 -0.450000018 0.899999976 -0.12499997 -0.405000031 1.89999998 -0.214999974 -0.405000031 1.89999998 -0.214999974 -0.450000018 1.89999998 -0.12499997 -0.405000031 1.89999998 -0.214999974 -0.450000018 1.89999998 -0.12499997 -0.450000018 1.89999998 -0.214999974 0.405000031 0.899999976 -0.214999974 0.405000031 1.89999998 -0.214999974 0.450000018 1.89999998 -0.214999974 0.405000031 0.899999976 -0.214999974 0.450000018 1.89999998 -0.214999974 0.450000018 0.899999976 -0.214999974 0.450000018 0.899999976 -0.214999974 0.450000018 1.89999998 -0.12499997 0.450000018 1.89999998 -0.214999974 0.450000018 0.899999976 -0.12499997 0.450000018 1.89999998 -0.12499997 0.450000018 0.899999976 -0.12499997 0.450000018 0.899999976 -0.12499997 0.450000018 1.89999998 -0.12499997 0.405000031 1.89999998 -0.12499997 0.450000018 0.899999976 -0.12499997 0.405000031 1.89999998 -0.12499997 0.405000031 0.899999976 -0.12499997 0.405000031 0.899999976 -0.12499997 0.405000031 1.89999998 -0.214999974 0.405000031 1.89999998 -0.12499997 0.405000031 0.899999976 -0.214999974 0.405000031 1.89999998 -0.214999974 0.405000031 0.899999976 -0.214999974 0.450000018 0.899999976 -0.12499997 0.450000018 0.899999976 -0.12499997 0.405000031 0.899999976 -0.214999974 0.450000018 0.899999976 -0.12499997 0.405000031 0.899999976 -0.214999974 0.405000031 0.899999976 -0.12499997 0.450000018 1.89999998 -0.214999974 0.450000018 1.89999998 -0.214999974 0.405000031 1.89999998 -0.12499997 0.450000018 1.89999998 -0.214999974 0.405000031 1.89999998 -0.12499997 0.405000031 1.89999998 -0.214999974 -0.449999988 1.9000001 -0.214999974 -0.449999988 1.94500005 -0.214999974 0.449999988 1.94500005 -0.214999974 -0.449999988 1.9000001 -0.214999974 0.449999988 1.94500005 -0.214999974 0.449999988 1.9000001 -0.214999974 0.449999988 1.9000001 -0.214999974 0.449999988 1.94500005 -0.12499997 0.449999988 1.94500005 -0.214999974 0.449999988 1.9000001 -0.12499997 0.449999988 1.94500005 -0.12499997 0.449999988 1.9000001 -0.12499997 0.449999988 1.9000001 -0.12499997 0.449999988 1.94500005 -0.12499997 -0.449999988 1.94500005 -0.12499997 0.449999988 1.9000001 -0.12499997 -0.449999988 1.94500005 -0.12499997 -0.449999988 1.9000001 -0.12499997 -0.449999988 1.9000001 -0.12499997 -0.449999988 1.94500005 -0.214999974 -0.449999988 1.94500005 -0.12499997 -0.449999988 1.9000001 -0.214999974 -0.449999988 1.94500005 -0.214999974 -0.449999988 1.9000001 -0.214999974 0.449999988 1.9000001 -0.12499997 0.449999988 1.9000001 -0.12499997 -0.449999988 1.9000001 -0.214999974 0.449999988 1.9000001 -0.12499997 -0.449999988 1.9000001 -0.214999974 -0.449999988 1.9000001 -0.12499997 0.449999988 1.94500005 -0.214999974 0.449999988 1.94500005 -0.214999974 -0.449999988 1.94500005 -0.12499997 0.449999988 1.94500005 -0.214999974 -0.449999988 1.94500005 -0.12499997 -0.449999988 1.94500005 -0.137388855 -0.450000018 1.04750013 -0.137388855 -0.450000018 1.09250009 -0.137388855 -0.405000031 1.09250009 -0.137388855 -0.450000018 1.04750013 -0.137388855 -0.405000031 1.09250009 -0.137388855 -0.405000031 1.04750013 -0.137388855 -0.405000031 1.04750013 -0.137388855 -0.405000031 1.09250009 0.107611135 -0.405000031 1.09250009 -0.137388855 -0.405000031 1.04750013 0.107611135 -0.405000031 1.09250009 0.107611135 -0.405000031 1.04750013 0.107611135 -0.405000031 1.04750013 0.107611135 -0.405000031 1.09250009 0.107611135 -0.450000018 1.09250009 0.107611135 -0.405000031 1.04750013 0.107611135 -0.450000018 1.09250009 0.107611135 -0.450000018 1.04750013 0.107611135 -0.450000018 1.04750013 0.107611135 -0.450000018 1.09250009 -0.137388855 -0.450000018 1.09250009 0.107611135 -0.450000018 1.04750013 -0.137388855 -0.450000018 1.09250009 -0.137388855 -0.450000018 1.04750013 -0.137388855 -0.405000031 1.04750013 0.107611135 -0.405000031 1.04750013 0.107611135 -0.450000018 1.04750013 -0.137388855 -0.405000031 1.04750013 0.107611135 -0.450000018 1.04750013 -0.137388855 -0.450000018 1.04750013 0.107611135 -0.405000031 1.09250009 -0.137388855 -0.405000031 1.09250009 -0.137388855 -0.450000018 1.09250009 0.107611135 -0.405000031 1.09250009 -0.137388855 -0.450000018 1.09250009 0.107611135 -0.450000018 1.09250009 </float_array>
          <technique_common>
            <accessor count="216" offset="0" source="#mesh_0-positions-array" stride="3">
              <param name="X" type="float" />
              <param name="Y" type="float" />
              <param name="Z" type="float" />
            </accessor>
          </technique_common>
        </source>
        <source id="mesh_0-normals" name="mesh_0-normals">
          <float_array id="mesh_0-normals-array" count="648"> -1 -0 -0 -1 -0 -0 -1 -0 -0 -1 -0 0 -1 -0 0 -1 -0 0 0 1 0 0 1 0 0 1 0 0 1 -0 0 1 -0 0 1 -0 1 -0 0 1 -0 0 1 -0 0 1 -0 0 1 -0 0 1 -0 0 0 -1 0 0 -1 0 0 -1 0 0 -1 0 0 -1 0 0 -1 0 0 0 -1 0 0 -1 0 0 -1 0 0 -1 0 0 -1 0 0 -1 0 0 1 0 0 1 0 0 1 0 -0 1 0 -0 1 0 -0 1 -1 -0 -0 -1 -0 -0 -1 -0 -0 -1 -0 0 -1 -0 0 -1 -0 0 0 1 0 0 1 0 0 1 0 0 1 -0 0 1 -0 0 1 -0 1 -0 0 1 -0 0 1 -0 0 1 -0 0 1 -0 0 1 -0 0 0 -1 0 0 -1 0 0 -1 0 0 -1 0 0 -1 0 0 -1 0 0 0 -1 0 0 -1 0 0 -1 0 0 -1 0 0 -1 0 0 -1 0 0 1 0 0 1 0 0 1 0 -0 1 0 -0 1 0 -0 1 -1 -0 -0 -1 -0 -0 -1 -0 -0 -1 -0 0 -1 -0 0 -1 -0 0 0 1 0 0 1 0 0 1 0 0 1 -0 0 1 -0 0 1 -0 1 -0 0 1 -0 0 1 -0 0 1 -0 0 1 -0 0 1 -0 0 0 -1 0 0 -1 0 0 -1 0 0 -1 0 0 -1 0 0 -1 0 0 0 -1 0 0 -1 0 0 -1 0 0 -1 0 0 -1 0 0 -1 0 0 1 0 0 1 0 0 1 0 -0 1 0 -0 1 0 -0 1 -1 -0 -0 -1 -0 -0 -1 -0 -0 -1 -0 0 -1 -0 0 -1 -0 0 0 1 0 0 1 0 0 1 0 0 1 -0 0 1 -0 0 1 -0 1 -0 0 1 -0 0 1 -0 0 1 -0 0 1 -0 0 1 -0 0 0 -1 0 0 -1 0 0 -1 0 0 -1 0 0 -1 0 0 -1 0 0 0 -1 0 0 -1 0 0 -1 0 0 -1 0 0 -1 0 0 -1 0 0 1 0 0 1 0 0 1 0 -0 1 0 -0 1 0 -0 1 -1 -0 -0 -1 -0 -0 -1 -0 -0 -1 -0 0 -1 -0 0 -1 -0 0 0 1 0 0 1 0 0 1 0 0 1 -0 0 1 -0 0 1 -0 1 -0 0 1 -0 0 1 -0 0 1 -0 0 1 -0 0 1 -0 0 0 -1 0 0 -1 0 0 -1 0 0 -1 0 0 -1 0 0 -1 0 0 0 -1 0 0 -1 0 0 -1 0 0 -1 0 0 -1 0 0 -1 0 0 1 0 0 1 0 0 1 0 -0 1 0 -0 1 0 -0 1 -1 -0 -0 -1 -0 -0 -1 -0 -0 -1 -0 0 -1 -0 0 -1 -0 0 0 1 0 0 1 0 0 1 0 0 1 -0 0 1 -0 0 1 -0 1 -0 0 1 -0 0 1 -0 0 1 -0 0 1 -0 0 1 -0 0 0 -1 0 0 -1 0 0 -1 0 0 -1 0 0 -1 0 0 -1 0 0 0 -1 0 0 -1 0 0 -1 0 0 -1 0 0 -1 0 0 -1 0 0 1 0 0 1 0 0 1 0 -0 1 0 -0 1 0 -0 1 </float_array>
          <technique_common>
            <accessor count="216" offset="0" source="#mesh_0-normals-array" stride="3">
              <param name="X" type="float" />
              <param name="Y" type="float" />
              <param name="Z" type="float" />
            </accessor>
          </technique_common>
        </source>
        <vertices id="mesh_0-vertices">
          <input semantic="POSITION" source="#mesh_0-positions" />
        </vertices>
        <polylist count="72" material="defaultMaterial">
          <input offset="0" semantic="VERTEX" source="#mesh_0-vertices" />
          <input offset="1" semantic="NORMAL" source="#mesh_0-normals" />
          <vcount>3 3 3 3 3 3 3 3 3 3 3 3 3 3 3 3 3 3 3 3 3 3 3 3 3 3 3 3 3 3 3 3 3 3 3 3 3 3 3 3 3 3 3 3 3 3 3 3 3 3 3 3 3 3 3 3 3 3 3 3 3 3 3 3 3 3 3 3 3 3 3 3 </vcount>
          <p>0 0 1 1 2 2 3 3 4 4 5 5 6 6 7 7 8 8 9 9 10 10 11 11 12 12 13 13 14 14 15 15 16 16 17 17 18 18 19 19 20 20 21 21 22 22 23 23 24 24 25 25 26 26 27 27 28 28 29 29 30 30 31 31 32 32 33 33 34 34 35 35 36 36 37 37 38 38 39 39 40 40 41 41 42 42 43 43 44 44 45 45 46 46 47 47 48 48 49 49 50 50 51 51 52 52 53 53 54 54 55 55 56 56 57 57 58 58 59 59 60 60 61 61 62 62 63 63 64 64 65 65 66 66 67 67 68 68 69 69 70 70 71 71 72 72 73 73 74 74 75 75 76 76 77 77 78 78 79 79 80 80 81 81 82 82 83 83 84 84 85 85 86 86 87 87 88 88 89 89 90 90 91 91 92 92 93 93 94 94 95 95 96 96 97 97 98 98 99 99 100 100 101 101 102 102 103 103 104 104 105 105 106 106 107 107 108 108 109 109 110 110 111 111 112 112 113 113 114 114 115 115 116 116 117 117 118 118 119 119 120 120 121 121 122 122 123 123 124 124 125 125 126 126 127 127 128 128 129 129 130 130 131 131 132 132 133 133 134 134 135 135 136 136 137 137 138 138 139 139 140 140 141 141 142 142 143 143 144 144 145 145 146 146 147 147 148 148 149 149 150 150 151 151 152 152 153 153 154 154 155 155 156 156 157 157 158 158 159 159 160 160 161 161 162 162 163 163 164 164 165 165 166 166 167 167 168 168 169 169 170 170 171 171 172 172 173 173 174 174 175 175 176 176 177 177 178 178 179 179 180 180 181 181 182 182 183 183 184 184 185 185 186 186 187 187 188 188 189 189 190 190 191 191 192 192 193 193 194 194 195 195 196 196 197 197 198 198 199 199 200 200 201 201 202 202 203 203 204 204 205 205 206 206 207 207 208 208 209 209 210 210 211 211 212 212 213 213 214 214 215 215</p>
        </polylist>
      </mesh>
    </geometry>
  </library_geometries>
  <library_controllers>
  </library_controllers>
  <library_visual_scenes>
    <visual_scene id="_ySTL_BINARY_" name="&lt;STL_BINARY&gt;">
      <node id="node" name="" type="NODE">
        <matrix sid="matrix">1 0 0 0 0 1 0 0 0 0 1 0 0 0 0 1</matrix>
        <instance_geometry url="#mesh_0">
          <bind_material>
            <technique_common>
              <instance_material symbol="defaultMaterial" target="#DefaultMaterial">
              </instance_material>
            </technique_common>
          </bind_material>
        </instance_geometry>
      </node>
    </visual_scene>
  </library_visual_scenes>
  <scene>
    <instance_visual_scene url="#_ySTL_BINARY_" />
  </scene>
</COLLADA>
