<?xml version="1.0" encoding="UTF-8"?>
<COLLADA xmlns="http://www.collada.org/2005/11/COLLADASchema" version="1.4.1">
    <asset>
        <contributor>
            <author>VCGLab</author>
            <authoring_tool>VCGLib | MeshLab</authoring_tool>
        </contributor>
        <created>R sept 4 13:44:08 2026 GMT</created>
        <modified>R sept 4 13:44:08 2026 GMT</modified>
        <up_axis>Y_UP</up_axis>
    </asset>
    <library_geometries>
        <geometry id="shape0-lib" name="shape0">
            <mesh>
                <source id="shape0-lib-positions" name="position">
                    <float_array id="shape0-lib-positions-array" count="1398">-0.0225 -0.0225 0 -0.0225 -0.0225 0.2 -0.0225 0.0225 0.2 -0.0225 0.0225 0 0.0225 0.0225 0.2 0.0225 0.0225 0 0.0225 -0.0225 0.2 0.0225 -0.0225 0 -0.010303 0.281826 0.2 -0.010303 0.281826 0.21 -0.010303 0.421826 0.21 -0.010303 0.421826 0.2 0.00969697 0.421826 0.21 0.00969697 0.421826 0.2 0.00969697 0.281826 0.21 0.00969697 0.281826 0.2 -0.00373578 0.412508 0.2 -0.00380303 0.411826 0.2 0.00319697 0.411826 0.2 0.00312972 0.412508 0.2 0.00293055 0.413165 0.2 -0.00353661 0.413165 0.2 -0.00321318 0.41377 0.2 0.00260711 0.41377 0.2 0.00217184 0.4143 0.2 -0.00277791 0.4143 0.2 -0.00224753 0.414736 0.2 0.00164146 0.414736 0.2 0.00103636 0.415059 0.2 -0.00164242 0.415059 0.2 0.000379785 0.415258 0.2 -0.000303031 0.415326 0.2 -0.000985847 0.415258 0.2 -0.00373578 0.292508 0.2 -0.00380303 0.291826 0.2 -0.00373578 0.411143 0.2 -0.00353661 0.293165 0.2 -0.00321318 0.29377 0.2 -0.00353661 0.410486 0.2 -0.00321318 0.409881 0.2 -0.00277791 0.409351 0.2 -0.00277791 0.2943 0.2 -0.00224753 0.408915 0.2 -0.00224753 0.294736 0.2 -0.00164242 0.408592 0.2 -0.00164242 0.295059 0.2 -0.000985847 0.408393 0.2 -0.000985847 0.295258 0.2 -0.000303031 0.408326 0.2 -0.000303031 0.295326 0.2 0.000379785 0.408393 0.2 0.000379785 0.295258 0.2 0.00103636 0.408592 0.2 0.00103636 0.295059 0.2 0.00164146 0.408915 0.2 0.00164146 0.294736 0.2 0.00217184 0.409351 0.2 0.00217184 0.2943 0.2 0.00260711 0.409881 0.2 0.00260711 0.29377 0.2 0.00293055 0.410486 0.2 0.00293055 0.293165 0.2 0.00312972 0.411143 0.2 0.00319697 0.291826 0.2 0.00312972 0.292508 0.2 0.00312972 0.291143 0.2 -0.00373578 0.291143 0.2 -0.00353661 0.290486 0.2 0.00293055 0.290486 0.2 0.00260711 0.289881 0.2 -0.00321318 0.289881 0.2 -0.00277791 0.289351 0.2 0.00217184 0.289351 0.2 0.00164146 0.288915 0.2 -0.00224753 0.288915 0.2 -0.00164242 0.288592 0.2 0.00103636 0.288592 0.2 -0.000985847 0.288393 0.2 -0.000303031 0.288326 0.2 0.000379785 0.288393 0.2 -0.00373578 0.291143 0.21 -0.00380303 0.291826 0.21 0.00319697 0.291826 0.21 0.00312972 0.291143 0.21 0.00293055 0.290486 0.21 -0.00353661 0.290486 0.21 -0.00321318 0.289881 0.21 0.00260711 0.289881 0.21 0.00217184 0.289351 0.21 -0.00277791 0.289351 0.21 -0.00224753 0.288915 0.21 0.00164146 0.288915 0.21 0.00103636 0.288592 0.21 -0.00164242 0.288592 0.21 0.000379785 0.288393 0.21 -0.000303031 0.288326 0.21 -0.000985847 0.288393 0.21 -0.00373578 0.411143 0.21 -0.00380303 0.411826 0.21 -0.00373578 0.292508 0.21 -0.00353661 0.410486 0.21 -0.00321318 0.409881 0.21 -0.00353661 0.293165 0.21 -0.00321318 0.29377 0.21 -0.00277791 0.2943 0.21 -0.00277791 0.409351 0.21 -0.00224753 0.294736 0.21 -0.00224753 0.408915 0.21 -0.00164242 0.295059 0.21 -0.00164242 0.408592 0.21 -0.000985847 0.295258 0.21 -0.000985847 0.408393 0.21 -0.000303031 0.295326 0.21 -0.000303031 0.408326 0.21 0.000379785 0.295258 0.21 0.000379785 0.408393 0.21 0.00103636 0.295059 0.21 0.00103636 0.408592 0.21 0.00164146 0.294736 0.21 0.00164146 0.408915 0.21 0.00217184 0.2943 0.21 0.00217184 0.409351 0.21 0.00260711 0.29377 0.21 0.00260711 0.409881 0.21 0.00293055 0.293165 0.21 0.00293055 0.410486 0.21 0.00312972 0.292508 0.21 0.00319697 0.411826 0.21 0.00312972 0.411143 0.21 0.00312972 0.412508 0.21 -0.00373578 0.412508 0.21 -0.00353661 0.413165 0.21 0.00293055 0.413165 0.21 0.00260711 0.41377 0.21 -0.00321318 0.41377 0.21 -0.00277791 0.4143 0.21 0.00217184 0.4143 0.21 0.00164146 0.414736 0.21 -0.00224753 0.414736 0.21 -0.00164242 0.415059 0.21 0.00103636 0.415059 0.21 -0.000985847 0.415258 0.21 -0.000303031 0.415326 0.21 0.000379785 0.415258 0.21 -0.010303 0.301826 0.21999 -0.010303 0.301826 0.205 0.00969697 0.301826 0.205 0.00969697 0.301826 0.21999 -0.010303 0.316816 0.21999 -0.010303 0.401826 0.205 -0.010303 0.401826 0.21999 0.00969697 0.401826 0.205 0.00969697 0.385647 0.21999 0.00969697 0.401826 0.21999 0.00969697 0.301826 0.243131 -0.010303 0.301826 0.243131 -0.010303 0.401826 0.243131 0.00969697 0.401826 0.243131 0.00471976 0.38067 0.243131 -0.010303 0.316816 0.243131 0.00969697 0.385647 0.243131 -0.00484668 0.325326 0.275 -0.00484668 0.315278 0.275 0.00424064 0.315278 0.275 0.00424064 0.325326 0.275 -0.00702972 0.312658 0.325 0.00642369 0.312658 0.325 -0.00702972 0.325326 0.325 -0.010303 0.325326 0.275 -0.010303 0.325326 0.325 0.00642369 0.325326 0.325 0.00969697 0.325326 0.325 0.00969697 0.325326 0.3015 0.00969697 0.325326 0.275 0.00969697 0.301826 0.325 -0.010303 0.301826 0.325 0.00969697 0.301826 0.24 0.00969697 0.385647 0.24 0.00969697 0.401826 0.24 0.00969697 0.401826 0.325 0.00969697 0.378326 0.3015 0.00969697 0.325835 0.26983 0.00969697 0.327343 0.264859 0.00969697 0.329792 0.260277 0.00969697 0.333087 0.256262 0.00969697 0.337103 0.252966 0.00969697 0.341684 0.250517 0.00969697 0.346656 0.249009 0.00969697 0.351826 0.2485 0.00969697 0.356995 0.249009 0.00969697 0.361967 0.250517 0.00969697 0.366548 0.252966 0.00969697 0.370564 0.256262 0.00969697 0.37386 0.260277 0.00969697 0.376308 0.264859 0.00969697 0.377816 0.26983 0.00969697 0.378326 0.275 -0.010303 0.301826 0.24 -0.010303 0.316826 0.24 -0.010303 0.329792 0.260277 -0.010303 0.333087 0.256262 -0.010303 0.327343 0.264859 -0.010303 0.325835 0.26983 -0.010303 0.337103 0.252966 -0.010303 0.341684 0.250517 -0.010303 0.378326 0.3015 -0.010303 0.401826 0.325 -0.010303 0.401826 0.24 -0.010303 0.346656 0.249009 -0.010303 0.351826 0.2485 -0.010303 0.356995 0.249009 -0.010303 0.361967 0.250517 -0.010303 0.366548 0.252966 -0.010303 0.370564 0.256262 -0.010303 0.37386 0.260277 -0.010303 0.376308 0.264859 -0.010303 0.377816 0.26983 -0.010303 0.378326 0.275 -0.00484668 0.378326 0.275 -0.00702972 0.378326 0.325 -0.010303 0.378326 0.325 0.00969697 0.378326 0.325 0.00642369 0.378326 0.325 0.00424064 0.378326 0.275 0.00642369 0.390993 0.325 -0.00702972 0.390993 0.325 0.004719 0.380669 0.24 -0.00484668 0.388373 0.275 0.00424064 0.388373 0.275 -0.0225 -0.0225 0.155 -0.0225 -0.0225 0.2 -0.0225 0.4775 0.2 -0.0225 0.4775 0.155 0.0225 0.4775 0.2 0.0225 0.4775 0.155 0.0225 -0.0225 0.2 0.0225 -0.0225 0.155 -0.0225 0.4325 0 -0.0225 0.4325 0.2 -0.0225 0.4775 0.2 -0.0225 0.4775 0 0.0225 0.4775 0.2 0.0225 0.4775 0 0.0225 0.4325 0.2 0.0225 0.4325 0 -0.010303 0.0318255 0.2 -0.010303 0.0318255 0.21 -0.010303 0.171826 0.21 -0.010303 0.171826 0.2 0.00969697 0.171826 0.21 0.00969697 0.171826 0.2 0.00969697 0.0318255 0.21 0.00969697 0.0318255 0.2 -0.00373578 0.162508 0.2 -0.00380303 0.161826 0.2 0.00319697 0.161826 0.2 0.00312972 0.162508 0.2 0.00293055 0.163165 0.2 -0.00353661 0.163165 0.2 -0.00321318 0.16377 0.2 0.00260711 0.16377 0.2 0.00217184 0.1643 0.2 -0.00277791 0.1643 0.2 -0.00224753 0.164736 0.2 0.00164146 0.164736 0.2 0.00103636 0.165059 0.2 -0.00164242 0.165059 0.2 0.000379785 0.165258 0.2 -0.000303031 0.165326 0.2 -0.000985847 0.165258 0.2 -0.00373578 0.0425083 0.2 -0.00380303 0.0418255 0.2 -0.00373578 0.161143 0.2 -0.00353661 0.0431649 0.2 -0.00321318 0.04377 0.2 -0.00353661 0.160486 0.2 -0.00321318 0.159881 0.2 -0.00277791 0.159351 0.2 -0.00277791 0.0443004 0.2 -0.00224753 0.158915 0.2 -0.00224753 0.0447357 0.2 -0.00164242 0.158592 0.2 -0.00164242 0.0450591 0.2 -0.000985847 0.158393 0.2 -0.000985847 0.0452583 0.2 -0.000303031 0.158326 0.2 -0.000303031 0.0453255 0.2 0.000379785 0.158393 0.2 0.000379785 0.0452583 0.2 0.00103636 0.158592 0.2 0.00103636 0.0450591 0.2 0.00164146 0.158915 0.2 0.00164146 0.0447357 0.2 0.00217184 0.159351 0.2 0.00217184 0.0443004 0.2 0.00260711 0.159881 0.2 0.00260711 0.04377 0.2 0.00293055 0.160486 0.2 0.00293055 0.0431649 0.2 0.00312972 0.161143 0.2 0.00319697 0.0418255 0.2 0.00312972 0.0425083 0.2 0.00312972 0.0411427 0.2 -0.00373578 0.0411427 0.2 -0.00353661 0.0404861 0.2 0.00293055 0.0404861 0.2 0.00260711 0.039881 0.2 -0.00321318 0.039881 0.2 -0.00277791 0.0393506 0.2 0.00217184 0.0393506 0.2 0.00164146 0.0389154 0.2 -0.00224753 0.0389154 0.2 -0.00164242 0.0385919 0.2 0.00103636 0.0385919 0.2 -0.000985847 0.0383928 0.2 -0.000303031 0.0383255 0.2 0.000379785 0.0383928 0.2 -0.00373578 0.0411427 0.21 -0.00380303 0.0418255 0.21 0.00319697 0.0418255 0.21 0.00312972 0.0411427 0.21 0.00293055 0.0404861 0.21 -0.00353661 0.0404861 0.21 -0.00321318 0.039881 0.21 0.00260711 0.039881 0.21 0.00217184 0.0393506 0.21 -0.00277791 0.0393506 0.21 -0.00224753 0.0389154 0.21 0.00164146 0.0389154 0.21 0.00103636 0.0385919 0.21 -0.00164242 0.0385919 0.21 0.000379785 0.0383928 0.21 -0.000303031 0.0383255 0.21 -0.000985847 0.0383928 0.21 -0.00373578 0.161143 0.21 -0.00380303 0.161826 0.21 -0.00373578 0.0425083 0.21 -0.00353661 0.160486 0.21 -0.00321318 0.159881 0.21 -0.00353661 0.0431649 0.21 -0.00321318 0.04377 0.21 -0.00277791 0.0443004 0.21 -0.00277791 0.159351 0.21 -0.00224753 0.0447357 0.21 -0.00224753 0.158915 0.21 -0.00164242 0.0450591 0.21 -0.00164242 0.158592 0.21 -0.000985847 0.0452583 0.21 -0.000985847 0.158393 0.21 -0.000303031 0.0453255 0.21 -0.000303031 0.158326 0.21 0.000379785 0.0452583 0.21 0.000379785 0.158393 0.21 0.00103636 0.0450591 0.21 0.00103636 0.158592 0.21 0.00164146 0.0447357 0.21 0.00164146 0.158915 0.21 0.00217184 0.0443004 0.21 0.00217184 0.159351 0.21 0.00260711 0.04377 0.21 0.00260711 0.159881 0.21 0.00293055 0.0431649 0.21 0.00293055 0.160486 0.21 0.00312972 0.0425083 0.21 0.00319697 0.161826 0.21 0.00312972 0.161143 0.21 0.00312972 0.162508 0.21 -0.00373578 0.162508 0.21 -0.00353661 0.163165 0.21 0.00293055 0.163165 0.21 0.00260711 0.16377 0.21 -0.00321318 0.16377 0.21 -0.00277791 0.1643 0.21 0.00217184 0.1643 0.21 0.00164146 0.164736 0.21 -0.00224753 0.164736 0.21 -0.00164242 0.165059 0.21 0.00103636 0.165059 0.21 -0.000985847 0.165258 0.21 -0.000303031 0.165326 0.21 0.000379785 0.165258 0.21 -0.010303 0.0518255 0.21999 -0.010303 0.0518255 0.205 0.00969697 0.0518255 0.205 0.00969697 0.0518255 0.21999 -0.010303 0.0668155 0.21999 -0.010303 0.151826 0.205 -0.010303 0.151826 0.21999 0.00969697 0.151826 0.205 0.00969697 0.135647 0.21999 0.00969697 0.151826 0.21999 0.00969697 0.0518255 0.243131 -0.010303 0.0518255 0.243131 -0.010303 0.151826 0.243131 0.00969697 0.151826 0.243131 0.00471976 0.13067 0.243131 -0.010303 0.0668155 0.243131 0.00969697 0.135647 0.243131 -0.00484668 0.0753255 0.275 -0.00484668 0.0652781 0.275 0.00424064 0.0652781 0.275 0.00424064 0.0753255 0.275 -0.00702972 0.0626577 0.325 0.00642369 0.0626577 0.325 -0.00702972 0.0753255 0.325 -0.010303 0.0753255 0.275 -0.010303 0.0753255 0.325 0.00642369 0.0753255 0.325 0.00969697 0.0753255 0.325 0.00969697 0.0753255 0.3015 0.00969697 0.0753255 0.275 0.00969697 0.0518255 0.325 -0.010303 0.0518255 0.325 0.00969697 0.0518255 0.24 0.00969697 0.135647 0.24 0.00969697 0.151826 0.24 0.00969697 0.151826 0.325 0.00969697 0.128326 0.3015 0.00969697 0.128326 0.275 0.00969697 0.127816 0.26983 0.00969697 0.126308 0.264859 0.00969697 0.123859 0.260277 0.00969697 0.120564 0.256262 0.00969697 0.116548 0.252966 0.00969697 0.111967 0.250517 0.00969697 0.106995 0.249009 0.00969697 0.101826 0.2485 0.00969697 0.0966556 0.249009 0.00969697 0.0916844 0.250517 0.00969697 0.0871029 0.252966 0.00969697 0.0830872 0.256262 0.00969697 0.0797916 0.260277 0.00969697 0.0773427 0.264859 0.00969697 0.0758347 0.26983 -0.010303 0.0518255 0.24 -0.010303 0.0668255 0.24 -0.010303 0.0797916 0.260277 -0.010303 0.0830872 0.256262 -0.010303 0.0773427 0.264859 -0.010303 0.0758347 0.26983 -0.010303 0.0871029 0.252966 -0.010303 0.0916844 0.250517 -0.010303 0.128326 0.3015 -0.010303 0.151826 0.325 -0.010303 0.151826 0.24 -0.010303 0.0966556 0.249009 -0.010303 0.101826 0.2485 -0.010303 0.106995 0.249009 -0.010303 0.111967 0.250517 -0.010303 0.116548 0.252966 -0.010303 0.120564 0.256262 -0.010303 0.123859 0.260277 -0.010303 0.126308 0.264859 -0.010303 0.127816 0.26983 -0.010303 0.128326 0.275 -0.00484668 0.128326 0.275 -0.00702972 0.128326 0.325 -0.010303 0.128326 0.325 0.00969697 0.128326 0.325 0.00642369 0.128326 0.325 0.00424064 0.128326 0.275 0.00642369 0.140993 0.325 -0.00702972 0.140993 0.325 0.004719 0.130669 0.24 -0.00484668 0.138373 0.275 0.00424064 0.138373 0.275</float_array>
                    <technique_common>
                        <accessor count="466" source="#shape0-lib-positions-array" stride="3">
                            <param name="X" type="float"/>
                            <param name="Y" type="float"/>
                            <param name="Z" type="float"/>
                        </accessor>
                    </technique_common>
                </source>
                <source id="shape0-lib-normals" name="normal">
                    <float_array id="shape0-lib-normals-array" count="2736">-1 0 0 -1 0 0 0 1 0 0 1 0 1 0 0 1 0 0 0 -1 0 0 -1 0 0 0 -1 0 0 -1 0 0 1 0 0 1 -1 0 0 -1 0 0 0 1 0 0 1 0 1 0 0 1 0 0 0 -1 0 0 -1 0 0 0 -1 0 0 -1 0 0 -1 0 0 -1 0 0 -1 0 0 -1 0 0 -1 0 0 -1 0 0 -1 0 0 -1 0 0 -1 0 0 -1 0 0 -1 0 0 -1 0 0 -1 0 0 -1 0 0 -1 0 0 -1 0 0 -1 0 0 -1 0 0 -1 0 0 -1 0 0 -1 0 0 -1 0 0 -1 0 0 -1 0 0 -1 0 0 -1 0 0 -1 0 0 -1 0 0 -1 0 0 -1 0 0 -1 0 0 -1 0 0 -1 0 0 -1 0 0 -1 0 0 -1 0 0 -1 0 0 -1 0 0 -1 0 0 -1 0 0 -1 0 0 -1 0 0 -1 0 0 -1 0 0 -1 0 0 -1 0 0 -1 0 0 -1 0 0 -1 0 0 -1 0 0 -1 0 0 -1 0 0 -1 0 0 -1 0 0 -1 0 0 -1 0 0 -1 0 0 -1 0 0 -1 0 0 -1 0 0 -1 0 0 -1 0 0 -1 0 0 -1 0 0 -1 0 0 -1 0 0 -1 0 0 -1 0 0 1 0 0 1 0 0 1 0 0 1 0 0 1 0 0 1 0 0 1 0 0 1 0 0 1 0 0 1 0 0 1 0 0 1 0 0 1 0 0 1 0 0 1 0 0 1 0 0 1 0 0 1 0 0 1 0 0 1 0 0 1 0 0 1 0 0 1 0 0 1 0 0 1 0 0 1 0 0 1 0 0 1 0 0 1 0 0 1 0 0 1 0 0 1 0 0 1 0 0 1 0 0 1 0 0 1 0 0 1 0 0 1 0 0 1 0 0 1 0 0 1 0 0 1 0 0 1 0 0 1 0 0 1 0 0 1 0 0 1 0 0 1 0 0 1 0 0 1 0 0 1 0 0 1 0 0 1 0 0 1 0 0 1 0 0 1 0 0 1 0 0 1 0 0 1 0 0 1 0 0 1 0 0 1 0 0 1 0 0 1 0 0 1 0 0 1 0 0 1 0 0 1 0 0 1 0 0 1 -0.0979489 -0.995192 0 -0.0979489 -0.995192 0 -0.290323 -0.956929 0 -0.290323 -0.956929 0 -0.471374 -0.881933 0 -0.471374 -0.881933 0 -0.634361 -0.773037 0 -0.634361 -0.773037 0 -0.773054 -0.634341 0 -0.773054 -0.634341 0 -0.881922 -0.471396 0 -0.881922 -0.471396 0 -0.956933 -0.290309 0 -0.956933 -0.290309 0 -0.995185 -0.0980111 0 -0.995185 -0.0980111 0 -0.995185 0.0980196 0 -0.995185 0.0980196 0 -0.956944 0.290273 0 -0.956944 0.290273 0 -0.881922 0.471396 0 -0.881922 0.471396 0 -0.772984 0.634426 0 -0.772984 0.634426 0 -0.634387 0.773015 0 -0.634387 0.773015 0 -0.471442 0.881897 0 -0.471442 0.881897 0 -0.290243 0.956953 0 -0.290243 0.956953 0 -0.0980779 0.995179 0 -0.0980779 0.995179 0 0.0980779 0.995179 0 0.0980779 0.995179 0 0.290243 0.956953 0 0.290243 0.956953 0 0.471442 0.881897 0 0.471442 0.881897 0 0.634387 0.773015 0 0.634387 0.773015 0 0.772984 0.634426 0 0.772984 0.634426 0 0.881922 0.471396 0 0.881922 0.471396 0 0.956944 0.290273 0 0.956944 0.290273 0 0.995185 0.0980196 0 0.995185 0.0980196 0 0.995185 -0.0980111 0 0.995185 -0.0980111 0 0.956933 -0.290309 0 0.956933 -0.290309 0 0.881922 -0.471396 0 0.881922 -0.471396 0 0.773054 -0.63434 0 0.773054 -0.63434 0 0.634361 -0.773037 0 0.634361 -0.773037 0 0.471374 -0.881933 0 0.471374 -0.881933 0 0.290323 -0.956929 0 0.290323 -0.956929 0 0.0979489 -0.995192 0 0.0979489 -0.995192 0 -0.0980349 -0.995183 0 -0.0980349 -0.995183 0 -0.290283 -0.956941 0 -0.290283 -0.956941 0 -0.471374 -0.881933 0 -0.471374 -0.881933 0 -0.634413 -0.772994 0 -0.634413 -0.772994 0 -0.773019 -0.634383 0 -0.773019 -0.634383 0 -0.881922 -0.471396 0 -0.881922 -0.471396 0 -0.956937 -0.290297 0 -0.956937 -0.290297 0 -0.995185 -0.0980154 0 -0.995185 -0.0980154 0 -0.995185 0.0980196 0 -0.995185 0.0980196 0 -0.95694 0.290285 0 -0.95694 0.290285 0 -0.881922 0.471396 0 -0.881922 0.471396 0 -0.773019 0.634383 0 -0.773019 0.634383 0 -0.634387 0.773015 0 -0.634387 0.773015 0 -0.471374 0.881933 0 -0.471374 0.881933 0 -0.290283 0.956941 0 -0.290283 0.956941 0 -0.0980349 0.995183 0 -0.0980349 0.995183 0 0.0980349 0.995183 0 0.0980349 0.995183 0 0.290283 0.956941 0 0.290283 0.956941 0 0.471374 0.881933 0 0.471374 0.881933 0 0.634387 0.773015 0 0.634387 0.773015 0 0.773019 0.634383 0 0.773019 0.634383 0 0.881922 0.471396 0 0.881922 0.471396 0 0.95694 0.290285 0 0.95694 0.290285 0 0.995185 0.0980196 0 0.995185 0.0980196 0 0.995185 -0.0980154 0 0.995185 -0.0980154 0 0.956937 -0.290297 0 0.956937 -0.290297 0 0.881922 -0.471396 0 0.881922 -0.471396 0 0.773019 -0.634383 0 0.773019 -0.634383 0 0.634413 -0.772994 0 0.634413 -0.772994 0 0.471374 -0.881933 0 0.471374 -0.881933 0 0.290283 -0.956941 0 0.290283 -0.956941 0 0.0980349 -0.995183 0 0.0980349 -0.995183 0 0 -1 0 0 -1 0 -1 0 0 -1 0 0 -1 0 0 0 0 -1 0 0 -1 1 0 0 1 0 0 1 0 0 0 1 0 0 1 0 0 -1 0 0 -1 0 0 1 0 0 1 0 0 0 1 0 0 1 0 0 1 0 0 1 0 0 1 0 0 1 1 0 0 1 0 0 -1 0 8.04912e-08 -1 0 8.04912e-08 -1 0 8.04912e-08 -1 0 8.04912e-08 1 0 0 1 0 0 0 0 1 0 0 1 0 0.99863 0.0523356 0 0.99863 0.0523356 0.999048 0 0.0436194 0.999048 0 0.0436194 0 1 0 0 1 0 0 1 0 0 1 0 0 1 0 0 1 0 0 1 0 -0.999048 0 0.0436195 -0.999048 0 0.0436195 0 0 1 0 0 1 0 0 1 0 0 1 0 0 1 0 0 1 1 0 0 1 0 0 1 0 0 1 0 0 1 0 0 1 0 0 1 0 0 1 0 0 1 0 0 1 0 0 1 0 0 1 0 0 1 0 0 1 0 0 1 0 0 1 0 0 1 0 0 1 0 0 1 0 0 1 0 0 1 0 0 1 0 0 1 0 0 -1 0 0 -1 0 0 -1 0 0 -1 0 0 -1 0 0 -1 0 0 -1 0 0 0 0.995185 0.0980194 0 0.995185 0.0980194 0 0.95694 0.290284 0 0.95694 0.290284 0 0.881922 0.471395 0 0.881922 0.471395 0 0.773011 0.634393 0 0.773011 0.634393 -1 0 0 -1 0 0 -1 0 0 -1 0 0 -1 0 0 -1 0 0 -1 0 0 -1 0 0 -1 0 0 -1 0 0 -1 0 0 -1 0 0 -1 0 0 -1 0 0 -1 0 0 0 0.634392 0.773012 0 0.634392 0.773012 0 0.471397 0.881921 0 0.471397 0.881921 0 0.29028 0.956942 0 0.29028 0.956942 0 0.0980228 0.995184 0 0.0980228 0.995184 0 -0.0980223 0.995184 0 -0.0980223 0.995184 0 -0.290282 0.956941 0 -0.290282 0.956941 0 -0.471397 0.881921 0 -0.471397 0.881921 0 -0.634386 0.773016 0 -0.634386 0.773016 0 -0.773011 0.634393 0 -0.773011 0.634393 0 -0.881925 0.471391 0 -0.881925 0.471391 0 -0.956942 0.290279 0 -0.956942 0.290279 0 -0.995184 0.0980251 0 -0.995184 0.0980251 0 -1 0 0 -1 0 0 -1 0 0 -1 0 0 -1 0 0 -1 0 0 -1 0 0 -1 0 1 0 0 0 0 1 0 0 1 0 0 1 0 0 1 0 0 1 0 0 1 0 1 0 0 1 0 0 0 -1 0 0 -1 0 0 -1 0 0 -1 0 0 -1 0 0 -1 0 -1 0 0 -1 0 -1 0 0 0.999048 0 0.0436194 0.999048 0 0.0436194 0 0 1 0 0 1 0 -0.99863 0.0523344 0 -0.99863 0.0523344 -0.999048 0 0.0436195 -0.999048 0 0.0436195 -1 0 0 -1 0 0 0 1 0 0 1 0 1 0 0 1 0 0 0 -1 0 0 -1 0 0 0 -1 0 0 -1 0 0 1 0 0 1 -1 0 0 -1 0 0 0 1 0 0 1 0 1 0 0 1 0 0 0 -1 0 0 -1 0 0 0 -1 0 0 -1 0 0 1 0 0 1 -1 0 0 -1 0 0 0 1 0 0 1 0 1 0 0 1 0 0 0 -1 0 0 -1 0 0 0 -1 0 0 -1 0 0 -1 0 0 -1 0 0 -1 0 0 -1 0 0 -1 0 0 -1 0 0 -1 0 0 -1 0 0 -1 0 0 -1 0 0 -1 0 0 -1 0 0 -1 0 0 -1 0 0 -1 0 0 -1 0 0 -1 0 0 -1 0 0 -1 0 0 -1 0 0 -1 0 0 -1 0 0 -1 0 0 -1 0 0 -1 0 0 -1 0 0 -1 0 0 -1 0 0 -1 0 0 -1 0 0 -1 0 0 -1 0 0 -1 0 0 -1 0 0 -1 0 0 -1 0 0 -1 0 0 -1 0 0 -1 0 0 -1 0 0 -1 0 0 -1 0 0 -1 0 0 -1 0 0 -1 0 0 -1 0 0 -1 0 0 -1 0 0 -1 0 0 -1 0 0 -1 0 0 -1 0 0 -1 0 0 -1 0 0 -1 0 0 -1 0 0 -1 0 0 -1 0 0 -1 0 0 -1 0 0 -1 0 0 -1 0 0 -1 0 0 -1 0 0 -1 0 0 -1 0 0 -1 0 0 -1 0 0 1 0 0 1 0 0 1 0 0 1 0 0 1 0 0 1 0 0 1 0 0 1 0 0 1 0 0 1 0 0 1 0 0 1 0 0 1 0 0 1 0 0 1 0 0 1 0 0 1 0 0 1 0 0 1 0 0 1 0 0 1 0 0 1 0 0 1 0 0 1 0 0 1 0 0 1 0 0 1 0 0 1 0 0 1 0 0 1 0 0 1 0 0 1 0 0 1 0 0 1 0 0 1 0 0 1 0 0 1 0 0 1 0 0 1 0 0 1 0 0 1 0 0 1 0 0 1 0 0 1 0 0 1 0 0 1 0 0 1 0 0 1 0 0 1 0 0 1 0 0 1 0 0 1 0 0 1 0 0 1 0 0 1 0 0 1 0 0 1 0 0 1 0 0 1 0 0 1 0 0 1 0 0 1 0 0 1 0 0 1 0 0 1 0 0 1 0 0 1 0 0 1 0 0 1 0 0 1 -0.0980134 -0.995185 0 -0.0980134 -0.995185 0 -0.290283 -0.956941 0 -0.290283 -0.956941 0 -0.471391 -0.881924 0 -0.471391 -0.881924 0 -0.634387 -0.773015 0 -0.634387 -0.773015 0 -0.77301 -0.634394 0 -0.77301 -0.634394 0 -0.881922 -0.471396 0 -0.881922 -0.471396 0 -0.95694 -0.290285 0 -0.95694 -0.290285 0 -0.995185 -0.0980175 0 -0.995185 -0.0980175 0 -0.995185 0.0980175 0 -0.995185 0.0980175 0 -0.956942 0.290279 0 -0.956942 0.290279 0 -0.881922 0.471396 0 -0.881922 0.471396 0 -0.773001 0.634405 0 -0.773001 0.634405 0 -0.6344 0.773005 0 -0.6344 0.773005 0 -0.471391 0.881924 0 -0.471391 0.881924 0 -0.290283 0.956941 0 -0.290283 0.956941 0 -0.0980349 0.995183 0 -0.0980349 0.995183 0 0.0980349 0.995183 0 0.0980349 0.995183 0 0.290283 0.956941 0 0.290283 0.956941 0 0.471391 0.881924 0 0.471391 0.881924 0 0.6344 0.773005 0 0.6344 0.773005 0 0.773001 0.634404 0 0.773001 0.634404 0 0.881922 0.471396 0 0.881922 0.471396 0 0.956942 0.290279 0 0.956942 0.290279 0 0.995185 0.0980175 0 0.995185 0.0980175 0 0.995185 -0.0980175 0 0.995185 -0.0980175 0 0.95694 -0.290285 0 0.95694 -0.290285 0 0.881922 -0.471396 0 0.881922 -0.471396 0 0.77301 -0.634394 0 0.77301 -0.634394 0 0.634387 -0.773015 0 0.634387 -0.773015 0 0.471391 -0.881924 0 0.471391 -0.881924 0 0.290283 -0.956941 0 0.290283 -0.956941 0 0.0980134 -0.995185 0 0.0980134 -0.995185 0 -0.0980134 -0.995185 0 -0.0980134 -0.995185 0 -0.290283 -0.956941 0 -0.290283 -0.956941 0 -0.471391 -0.881924 0 -0.471391 -0.881924 0 -0.634397 -0.773007 0 -0.634397 -0.773007 0 -0.77301 -0.634394 0 -0.77301 -0.634394 0 -0.881922 -0.471396 0 -0.881922 -0.471396 0 -0.95694 -0.290287 0 -0.95694 -0.290287 0 -0.995185 -0.0980175 0 -0.995185 -0.0980175 0 -0.995185 0.098017 0 -0.995185 0.098017 0 -0.95694 0.290285 0 -0.95694 0.290285 0 -0.881922 0.471396 0 -0.881922 0.471396 0 -0.773008 0.634397 0 -0.773008 0.634397 0 -0.634397 0.773007 0 -0.634397 0.773007 0 -0.471395 0.881922 0 -0.471395 0.881922 0 -0.290283 0.956941 0 -0.290283 0.956941 0 -0.0980134 0.995185 0 -0.0980134 0.995185 0 0.0980134 0.995185 0 0.0980134 0.995185 0 0.290283 0.956941 0 0.290283 0.956941 0 0.471395 0.881922 0 0.471395 0.881922 0 0.634397 0.773007 0 0.634397 0.773007 0 0.773008 0.634396 0 0.773008 0.634396 0 0.881922 0.471396 0 0.881922 0.471396 0 0.95694 0.290285 0 0.95694 0.290285 0 0.995185 0.098017 0 0.995185 0.098017 0 0.995185 -0.0980175 0 0.995185 -0.0980175 0 0.95694 -0.290287 0 0.95694 -0.290287 0 0.881922 -0.471396 0 0.881922 -0.471396 0 0.77301 -0.634394 0 0.77301 -0.634394 0 0.634397 -0.773007 0 0.634397 -0.773007 0 0.471391 -0.881924 0 0.471391 -0.881924 0 0.290283 -0.956941 0 0.290283 -0.956941 0 0.0980134 -0.995185 0 0.0980134 -0.995185 0 0 -1 0 0 -1 0 -1 0 0 -1 0 0 -1 0 0 0 0 -1 0 0 -1 1 0 0 1 0 0 1 0 0 0 1 0 0 1 0 0 -1 0 0 -1 0 0 1 0 0 1 0 0 0 1 0 0 1 0 0 1 0 0 1 0 0 1 0 0 1 1 0 0 1 0 0 -1 0 8.04912e-08 -1 0 8.04912e-08 -1 0 8.04912e-08 -1 0 8.04912e-08 1 0 0 1 0 0 0 0 1 0 0 1 0 0.99863 0.0523359 0 0.99863 0.0523359 0.999048 0 0.0436194 0.999048 0 0.0436194 0 1 0 0 1 0 0 1 0 0 1 0 0 1 0 0 1 0 0 1 0 -0.999048 0 0.0436195 -0.999048 0 0.0436195 0 0 1 0 0 1 0 0 1 0 0 1 0 0 1 0 0 1 1 0 0 1 0 0 1 0 0 1 0 0 1 0 0 1 0 0 1 0 0 1 0 0 1 0 0 1 0 0 1 0 0 1 0 0 1 0 0 1 0 0 1 0 0 1 0 0 1 0 0 1 0 0 1 0 0 1 0 0 1 0 0 1 0 0 1 0 0 -1 0 0 -1 0 0 -1 0 0 -1 0 0 -1 0 0 -1 0 0 -1 0 0 0 0.995185 0.0980166 0 0.995185 0.0980166 0 0.95694 0.290286 0 0.95694 0.290286 0 0.881922 0.471396 0 0.881922 0.471396 0 0.773013 0.63439 0 0.773013 0.63439 -1 0 0 -1 0 0 -1 0 0 -1 0 0 -1 0 0 -1 0 0 -1 0 0 -1 0 0 -1 0 0 -1 0 0 -1 0 0 -1 0 0 -1 0 0 -1 0 0 -1 0 0 0 0.634391 0.773012 0 0.634391 0.773012 0 0.471396 0.881922 0 0.471396 0.881922 0 0.290281 0.956941 0 0.290281 0.956941 0 0.0980223 0.995184 0 0.0980223 0.995184 0 -0.0980224 0.995184 0 -0.0980224 0.995184 0 -0.290281 0.956941 0 -0.290281 0.956941 0 -0.471396 0.881922 0 -0.471396 0.881922 0 -0.634391 0.773013 0 -0.634391 0.773013 0 -0.773013 0.63439 0 -0.773013 0.63439 0 -0.881922 0.471396 0 -0.881922 0.471396 0 -0.95694 0.290284 0 -0.95694 0.290284 0 -0.995185 0.0980166 0 -0.995185 0.0980166 0 -1 0 0 -1 0 0 -1 0 0 -1 0 0 -1 0 0 -1 0 0 -1 0 0 -1 0 1 0 0 0 0 1 0 0 1 0 0 1 0 0 1 0 0 1 0 0 1 0 1 0 0 1 0 0 0 -1 0 0 -1 0 0 -1 0 0 -1 0 0 -1 0 0 -1 0 -1 0 0 -1 0 -1 0 0 0.999048 0 0.0436194 0.999048 0 0.0436194 0 0 1 0 0 1 0 -0.99863 0.0523362 0 -0.99863 0.0523362 -0.999048 0 0.0436195 -0.999048 0 0.0436195</float_array>
                    <technique_common>
                        <accessor count="912" source="#shape0-lib-normals-array" stride="3">
                            <param name="X" type="float"/>
                            <param name="Y" type="float"/>
                            <param name="Z" type="float"/>
                        </accessor>
                    </technique_common>
                </source>
                <vertices id="shape0-lib-vertices">
                    <input semantic="POSITION" source="#shape0-lib-positions"/>
                </vertices>
                <triangles count="912">
                    <input offset="0" semantic="VERTEX" source="#shape0-lib-vertices"/>
                    <input offset="1" semantic="NORMAL" source="#shape0-lib-normals"/>
                    <p>0 0 1 0 2 0 0 1 2 1 3 1 3 2 2 2 4 2 3 3 4 3 5 3 5 4 4 4 6 4 5 5 6 5 7 5 7 6 6 6 1 6 7 7 1 7 0 7 3 8 5 8 7 8 3 9 7 9 0 9 4 10 2 10 1 10 4 11 1 11 6 11 8 12 9 12 10 12 8 13 10 13 11 13 11 14 10 14 12 14 11 15 12 15 13 15 13 16 12 16 14 16 13 17 14 17 15 17 15 18 14 18 9 18 15 19 9 19 8 19 16 20 17 20 11 20 13 21 18 21 19 21 13 22 19 22 20 22 21 23 16 23 11 23 22 24 21 24 11 24 13 25 20 25 23 25 13 26 23 26 24 26 25 27 22 27 11 27 26 28 25 28 11 28 13 29 24 29 27 29 13 30 27 30 28 30 26 31 11 31 13 31 29 32 26 32 13 32 13 33 28 33 30 33 13 34 30 34 31 34 32 35 29 35 13 35 13 36 31 36 32 36 33 37 34 37 8 37 8 38 11 38 17 38 8 39 17 39 35 39 36 40 33 40 8 40 37 41 36 41 8 41 8 42 35 42 38 42 8 43 38 43 39 43 37 44 8 44 39 44 37 45 39 45 40 45 41 46 37 46 40 46 41 47 40 47 42 47 43 48 41 48 42 48 43 49 42 49 44 49 45 50 43 50 44 50 45 51 44 51 46 51 47 52 45 52 46 52 47 53 46 53 48 53 49 54 47 54 48 54 49 55 48 55 50 55 51 56 49 56 50 56 51 57 50 57 52 57 53 58 51 58 52 58 53 59 52 59 54 59 55 60 53 60 54 60 55 61 54 61 56 61 57 62 55 62 56 62 57 63 56 63 58 63 59 64 57 64 58 64 59 65 58 65 60 65 61 66 59 66 60 66 62 67 18 67 13 67 61 68 60 68 62 68 15 69 63 69 64 69 64 70 61 70 62 70 62 71 13 71 15 71 62 72 15 72 64 72 65 73 63 73 15 73 8 74 34 74 66 74 8 75 66 75 67 75 68 76 65 76 15 76 69 77 68 77 15 77 8 78 67 78 70 78 8 79 70 79 71 79 72 80 69 80 15 80 73 81 72 81 15 81 8 82 71 82 74 82 8 83 74 83 75 83 73 84 15 84 8 84 76 85 73 85 8 85 8 86 75 86 77 86 8 87 77 87 78 87 79 88 76 88 8 88 8 89 78 89 79 89 80 90 81 90 9 90 14 91 82 91 83 91 14 92 83 92 84 92 85 93 80 93 9 93 86 94 85 94 9 94 14 95 84 95 87 95 14 96 87 96 88 96 89 97 86 97 9 97 90 98 89 98 9 98 14 99 88 99 91 99 14 100 91 100 92 100 90 101 9 101 14 101 93 102 90 102 14 102 14 103 92 103 94 103 14 104 94 104 95 104 96 105 93 105 14 105 14 106 95 106 96 106 97 107 98 107 10 107 10 108 9 108 81 108 10 109 81 109 99 109 100 110 97 110 10 110 101 111 100 111 10 111 10 112 99 112 102 112 10 113 102 113 103 113 101 114 10 114 103 114 101 115 103 115 104 115 105 116 101 116 104 116 105 117 104 117 106 117 107 118 105 118 106 118 107 119 106 119 108 119 109 120 107 120 108 120 109 121 108 121 110 121 111 122 109 122 110 122 111 123 110 123 112 123 113 124 111 124 112 124 113 125 112 125 114 125 115 126 113 126 114 126 115 127 114 127 116 127 117 128 115 128 116 128 117 129 116 129 118 129 119 130 117 130 118 130 119 131 118 131 120 131 121 132 119 132 120 132 121 133 120 133 122 133 123 134 121 134 122 134 123 135 122 135 124 135 125 136 123 136 124 136 126 137 82 137 14 137 125 138 124 138 126 138 12 139 127 139 128 139 128 140 125 140 126 140 126 141 14 141 12 141 126 142 12 142 128 142 129 143 127 143 12 143 10 144 98 144 130 144 10 145 130 145 131 145 132 146 129 146 12 146 133 147 132 147 12 147 10 148 131 148 134 148 10 149 134 149 135 149 136 150 133 150 12 150 137 151 136 151 12 151 10 152 135 152 138 152 10 153 138 153 139 153 137 154 12 154 10 154 140 155 137 155 10 155 10 156 139 156 141 156 10 157 141 157 142 157 143 158 140 158 10 158 10 159 142 159 143 159 142 160 31 160 30 160 142 161 30 161 143 161 143 162 30 162 28 162 143 163 28 163 140 163 140 164 28 164 27 164 140 165 27 165 137 165 137 166 27 166 24 166 137 167 24 167 136 167 136 168 24 168 23 168 136 169 23 169 133 169 133 170 23 170 20 170 133 171 20 171 132 171 132 172 20 172 19 172 132 173 19 173 129 173 19 174 18 174 127 174 19 175 127 175 129 175 18 176 62 176 128 176 18 177 128 177 127 177 62 178 60 178 125 178 62 179 125 179 128 179 60 180 58 180 123 180 60 181 123 181 125 181 58 182 56 182 121 182 58 183 121 183 123 183 56 184 54 184 119 184 56 185 119 185 121 185 54 186 52 186 117 186 54 187 117 187 119 187 52 188 50 188 115 188 52 189 115 189 117 189 50 190 48 190 113 190 50 191 113 191 115 191 48 192 46 192 111 192 48 193 111 193 113 193 46 194 44 194 109 194 46 195 109 195 111 195 44 196 42 196 107 196 44 197 107 197 109 197 42 198 40 198 105 198 42 199 105 199 107 199 40 200 39 200 101 200 40 201 101 201 105 201 39 202 38 202 100 202 39 203 100 203 101 203 38 204 35 204 97 204 38 205 97 205 100 205 97 206 35 206 17 206 97 207 17 207 98 207 98 208 17 208 16 208 98 209 16 209 130 209 130 210 16 210 21 210 130 211 21 211 131 211 131 212 21 212 22 212 131 213 22 213 134 213 134 214 22 214 25 214 134 215 25 215 135 215 135 216 25 216 26 216 135 217 26 217 138 217 138 218 26 218 29 218 138 219 29 219 139 219 139 220 29 220 32 220 139 221 32 221 141 221 141 222 32 222 31 222 141 223 31 223 142 223 112 224 49 224 51 224 112 225 51 225 114 225 114 226 51 226 53 226 114 227 53 227 116 227 116 228 53 228 55 228 116 229 55 229 118 229 118 230 55 230 57 230 118 231 57 231 120 231 120 232 57 232 59 232 120 233 59 233 122 233 122 234 59 234 61 234 122 235 61 235 124 235 124 236 61 236 64 236 124 237 64 237 126 237 64 238 63 238 82 238 64 239 82 239 126 239 63 240 65 240 83 240 63 241 83 241 82 241 65 242 68 242 84 242 65 243 84 243 83 243 68 244 69 244 87 244 68 245 87 245 84 245 69 246 72 246 88 246 69 247 88 247 87 247 72 248 73 248 91 248 72 249 91 249 88 249 73 250 76 250 92 250 73 251 92 251 91 251 76 252 79 252 94 252 76 253 94 253 92 253 79 254 78 254 95 254 79 255 95 255 94 255 78 256 77 256 96 256 78 257 96 257 95 257 77 258 75 258 93 258 77 259 93 259 96 259 75 260 74 260 90 260 75 261 90 261 93 261 74 262 71 262 89 262 74 263 89 263 90 263 71 264 70 264 86 264 71 265 86 265 89 265 70 266 67 266 85 266 70 267 85 267 86 267 67 268 66 268 80 268 67 269 80 269 85 269 80 270 66 270 34 270 80 271 34 271 81 271 81 272 34 272 33 272 81 273 33 273 99 273 99 274 33 274 36 274 99 275 36 275 102 275 102 276 36 276 37 276 102 277 37 277 103 277 103 278 37 278 41 278 103 279 41 279 104 279 104 280 41 280 43 280 104 281 43 281 106 281 106 282 43 282 45 282 106 283 45 283 108 283 108 284 45 284 47 284 108 285 47 285 110 285 110 286 47 286 49 286 110 287 49 287 112 287 144 288 145 288 146 288 144 289 146 289 147 289 144 290 148 290 145 290 149 291 145 291 148 291 149 292 148 292 150 292 149 293 151 293 146 293 149 294 146 294 145 294 152 295 147 295 146 295 146 296 151 296 153 296 146 297 153 297 152 297 151 298 149 298 150 298 151 299 150 299 153 299 144 300 147 300 154 300 144 301 154 301 155 301 153 302 150 302 156 302 153 303 156 303 157 303 158 304 157 304 156 304 159 305 155 305 154 305 158 306 156 306 159 306 154 307 160 307 158 307 159 308 154 308 158 308 160 309 157 309 158 309 152 310 153 310 157 310 152 311 157 311 160 311 148 312 144 312 155 312 148 313 155 313 159 313 150 314 148 314 159 314 150 315 159 315 156 315 147 316 152 316 160 316 147 317 160 317 154 317 161 318 162 318 163 318 161 319 163 319 164 319 163 320 162 320 165 320 163 321 165 321 166 321 167 322 165 322 162 322 167 323 162 323 161 323 168 324 169 324 167 324 168 325 167 325 161 325 170 326 171 326 172 326 168 327 161 327 164 327 164 328 170 328 172 328 173 329 168 329 164 329 172 330 173 330 164 330 163 331 166 331 170 331 163 332 170 332 164 332 165 333 167 333 169 333 174 334 171 334 170 334 174 335 170 335 166 335 165 336 169 336 175 336 174 337 166 337 165 337 165 338 175 338 174 338 174 339 172 339 171 339 172 340 174 340 176 340 177 341 178 341 179 341 177 342 179 342 180 342 173 343 172 343 176 343 181 344 173 344 176 344 182 345 181 345 176 345 183 346 182 346 176 346 184 347 183 347 176 347 185 348 184 348 176 348 186 349 185 349 176 349 187 350 186 350 176 350 188 351 187 351 176 351 189 352 188 352 176 352 189 353 176 353 177 353 190 354 189 354 177 354 191 355 190 355 177 355 192 356 191 356 177 356 193 357 192 357 177 357 194 358 193 358 177 358 195 359 194 359 177 359 196 360 195 360 177 360 196 361 177 361 180 361 197 362 175 362 169 362 198 363 197 363 169 363 199 364 200 364 198 364 201 365 199 365 198 365 202 366 201 366 198 366 168 367 202 367 198 367 169 368 168 368 198 368 168 369 173 369 181 369 168 370 181 370 202 370 202 371 181 371 182 371 202 372 182 372 201 372 201 373 182 373 183 373 201 374 183 374 199 374 199 375 183 375 184 375 199 376 184 376 200 376 198 377 200 377 203 377 198 378 203 378 204 378 205 379 206 379 207 379 198 380 204 380 208 380 198 381 208 381 209 381 198 382 209 382 210 382 207 383 198 383 210 383 207 384 210 384 211 384 207 385 211 385 212 385 207 386 212 386 213 386 207 387 213 387 214 387 207 388 214 388 215 388 207 389 215 389 216 389 207 390 216 390 217 390 217 391 205 391 207 391 203 392 200 392 184 392 203 393 184 393 185 393 204 394 203 394 185 394 204 395 185 395 186 395 208 396 204 396 186 396 208 397 186 397 187 397 209 398 208 398 187 398 209 399 187 399 188 399 210 400 209 400 188 400 210 401 188 401 189 401 211 402 210 402 189 402 211 403 189 403 190 403 212 404 211 404 190 404 212 405 190 405 191 405 213 406 212 406 191 406 213 407 191 407 192 407 214 408 213 408 192 408 214 409 192 409 193 409 215 410 214 410 193 410 215 411 193 411 194 411 216 412 215 412 194 412 216 413 194 413 195 413 217 414 216 414 195 414 217 415 195 415 196 415 218 416 219 416 220 416 218 417 220 417 205 417 221 418 222 418 223 418 218 419 205 419 217 419 180 420 221 420 223 420 223 421 218 421 217 421 196 422 180 422 223 422 217 423 196 423 223 423 180 424 179 424 221 424 224 425 222 425 221 425 206 426 220 426 219 426 206 427 219 427 225 427 224 428 221 428 179 428 206 429 225 429 224 429 224 430 179 430 206 430 207 431 206 431 179 431 207 432 179 432 178 432 177 433 176 433 197 433 198 434 207 434 178 434 177 435 197 435 198 435 198 436 178 436 226 436 198 437 226 437 177 437 178 438 177 438 226 438 176 439 174 439 175 439 176 440 175 440 197 440 206 441 205 441 220 441 218 442 227 442 225 442 218 443 225 443 219 443 223 444 228 444 227 444 223 445 227 445 218 445 225 446 227 446 228 446 225 447 228 447 224 447 222 448 224 448 228 448 222 449 228 449 223 449 229 450 230 450 231 450 229 451 231 451 232 451 232 452 231 452 233 452 232 453 233 453 234 453 234 454 233 454 235 454 234 455 235 455 236 455 236 456 235 456 230 456 236 457 230 457 229 457 232 458 234 458 236 458 232 459 236 459 229 459 233 460 231 460 230 460 233 461 230 461 235 461 237 462 238 462 239 462 237 463 239 463 240 463 240 464 239 464 241 464 240 465 241 465 242 465 242 466 241 466 243 466 242 467 243 467 244 467 244 468 243 468 238 468 244 469 238 469 237 469 240 470 242 470 244 470 240 471 244 471 237 471 241 472 239 472 238 472 241 473 238 473 243 473 245 474 246 474 247 474 245 475 247 475 248 475 248 476 247 476 249 476 248 477 249 477 250 477 250 478 249 478 251 478 250 479 251 479 252 479 252 480 251 480 246 480 252 481 246 481 245 481 253 482 254 482 248 482 250 483 255 483 256 483 250 484 256 484 257 484 258 485 253 485 248 485 259 486 258 486 248 486 250 487 257 487 260 487 250 488 260 488 261 488 262 489 259 489 248 489 263 490 262 490 248 490 250 491 261 491 264 491 250 492 264 492 265 492 263 493 248 493 250 493 266 494 263 494 250 494 250 495 265 495 267 495 250 496 267 496 268 496 269 497 266 497 250 497 250 498 268 498 269 498 270 499 271 499 245 499 245 500 248 500 254 500 245 501 254 501 272 501 273 502 270 502 245 502 274 503 273 503 245 503 245 504 272 504 275 504 245 505 275 505 276 505 274 506 245 506 276 506 274 507 276 507 277 507 278 508 274 508 277 508 278 509 277 509 279 509 280 510 278 510 279 510 280 511 279 511 281 511 282 512 280 512 281 512 282 513 281 513 283 513 284 514 282 514 283 514 284 515 283 515 285 515 286 516 284 516 285 516 286 517 285 517 287 517 288 518 286 518 287 518 288 519 287 519 289 519 290 520 288 520 289 520 290 521 289 521 291 521 292 522 290 522 291 522 292 523 291 523 293 523 294 524 292 524 293 524 294 525 293 525 295 525 296 526 294 526 295 526 296 527 295 527 297 527 298 528 296 528 297 528 299 529 255 529 250 529 298 530 297 530 299 530 252 531 300 531 301 531 301 532 298 532 299 532 299 533 250 533 252 533 299 534 252 534 301 534 302 535 300 535 252 535 245 536 271 536 303 536 245 537 303 537 304 537 305 538 302 538 252 538 306 539 305 539 252 539 245 540 304 540 307 540 245 541 307 541 308 541 309 542 306 542 252 542 310 543 309 543 252 543 245 544 308 544 311 544 245 545 311 545 312 545 310 546 252 546 245 546 313 547 310 547 245 547 245 548 312 548 314 548 245 549 314 549 315 549 316 550 313 550 245 550 245 551 315 551 316 551 317 552 318 552 246 552 251 553 319 553 320 553 251 554 320 554 321 554 322 555 317 555 246 555 323 556 322 556 246 556 251 557 321 557 324 557 251 558 324 558 325 558 326 559 323 559 246 559 327 560 326 560 246 560 251 561 325 561 328 561 251 562 328 562 329 562 327 563 246 563 251 563 330 564 327 564 251 564 251 565 329 565 331 565 251 566 331 566 332 566 333 567 330 567 251 567 251 568 332 568 333 568 334 569 335 569 247 569 247 570 246 570 318 570 247 571 318 571 336 571 337 572 334 572 247 572 338 573 337 573 247 573 247 574 336 574 339 574 247 575 339 575 340 575 338 576 247 576 340 576 338 577 340 577 341 577 342 578 338 578 341 578 342 579 341 579 343 579 344 580 342 580 343 580 344 581 343 581 345 581 346 582 344 582 345 582 346 583 345 583 347 583 348 584 346 584 347 584 348 585 347 585 349 585 350 586 348 586 349 586 350 587 349 587 351 587 352 588 350 588 351 588 352 589 351 589 353 589 354 590 352 590 353 590 354 591 353 591 355 591 356 592 354 592 355 592 356 593 355 593 357 593 358 594 356 594 357 594 358 595 357 595 359 595 360 596 358 596 359 596 360 597 359 597 361 597 362 598 360 598 361 598 363 599 319 599 251 599 362 600 361 600 363 600 249 601 364 601 365 601 365 602 362 602 363 602 363 603 251 603 249 603 363 604 249 604 365 604 366 605 364 605 249 605 247 606 335 606 367 606 247 607 367 607 368 607 369 608 366 608 249 608 370 609 369 609 249 609 247 610 368 610 371 610 247 611 371 611 372 611 373 612 370 612 249 612 374 613 373 613 249 613 247 614 372 614 375 614 247 615 375 615 376 615 374 616 249 616 247 616 377 617 374 617 247 617 247 618 376 618 378 618 247 619 378 619 379 619 380 620 377 620 247 620 247 621 379 621 380 621 379 622 268 622 267 622 379 623 267 623 380 623 380 624 267 624 265 624 380 625 265 625 377 625 377 626 265 626 264 626 377 627 264 627 374 627 374 628 264 628 261 628 374 629 261 629 373 629 373 630 261 630 260 630 373 631 260 631 370 631 370 632 260 632 257 632 370 633 257 633 369 633 369 634 257 634 256 634 369 635 256 635 366 635 256 636 255 636 364 636 256 637 364 637 366 637 255 638 299 638 365 638 255 639 365 639 364 639 299 640 297 640 362 640 299 641 362 641 365 641 297 642 295 642 360 642 297 643 360 643 362 643 295 644 293 644 358 644 295 645 358 645 360 645 293 646 291 646 356 646 293 647 356 647 358 647 291 648 289 648 354 648 291 649 354 649 356 649 289 650 287 650 352 650 289 651 352 651 354 651 287 652 285 652 350 652 287 653 350 653 352 653 285 654 283 654 348 654 285 655 348 655 350 655 283 656 281 656 346 656 283 657 346 657 348 657 281 658 279 658 344 658 281 659 344 659 346 659 279 660 277 660 342 660 279 661 342 661 344 661 277 662 276 662 338 662 277 663 338 663 342 663 276 664 275 664 337 664 276 665 337 665 338 665 275 666 272 666 334 666 275 667 334 667 337 667 334 668 272 668 254 668 334 669 254 669 335 669 335 670 254 670 253 670 335 671 253 671 367 671 367 672 253 672 258 672 367 673 258 673 368 673 368 674 258 674 259 674 368 675 259 675 371 675 371 676 259 676 262 676 371 677 262 677 372 677 372 678 262 678 263 678 372 679 263 679 375 679 375 680 263 680 266 680 375 681 266 681 376 681 376 682 266 682 269 682 376 683 269 683 378 683 378 684 269 684 268 684 378 685 268 685 379 685 349 686 286 686 288 686 349 687 288 687 351 687 351 688 288 688 290 688 351 689 290 689 353 689 353 690 290 690 292 690 353 691 292 691 355 691 355 692 292 692 294 692 355 693 294 693 357 693 357 694 294 694 296 694 357 695 296 695 359 695 359 696 296 696 298 696 359 697 298 697 361 697 361 698 298 698 301 698 361 699 301 699 363 699 301 700 300 700 319 700 301 701 319 701 363 701 300 702 302 702 320 702 300 703 320 703 319 703 302 704 305 704 321 704 302 705 321 705 320 705 305 706 306 706 324 706 305 707 324 707 321 707 306 708 309 708 325 708 306 709 325 709 324 709 309 710 310 710 328 710 309 711 328 711 325 711 310 712 313 712 329 712 310 713 329 713 328 713 313 714 316 714 331 714 313 715 331 715 329 715 316 716 315 716 332 716 316 717 332 717 331 717 315 718 314 718 333 718 315 719 333 719 332 719 314 720 312 720 330 720 314 721 330 721 333 721 312 722 311 722 327 722 312 723 327 723 330 723 311 724 308 724 326 724 311 725 326 725 327 725 308 726 307 726 323 726 308 727 323 727 326 727 307 728 304 728 322 728 307 729 322 729 323 729 304 730 303 730 317 730 304 731 317 731 322 731 317 732 303 732 271 732 317 733 271 733 318 733 318 734 271 734 270 734 318 735 270 735 336 735 336 736 270 736 273 736 336 737 273 737 339 737 339 738 273 738 274 738 339 739 274 739 340 739 340 740 274 740 278 740 340 741 278 741 341 741 341 742 278 742 280 742 341 743 280 743 343 743 343 744 280 744 282 744 343 745 282 745 345 745 345 746 282 746 284 746 345 747 284 747 347 747 347 748 284 748 286 748 347 749 286 749 349 749 381 750 382 750 383 750 381 751 383 751 384 751 381 752 385 752 382 752 386 753 382 753 385 753 386 754 385 754 387 754 386 755 388 755 383 755 386 756 383 756 382 756 389 757 384 757 383 757 383 758 388 758 390 758 383 759 390 759 389 759 388 760 386 760 387 760 388 761 387 761 390 761 381 762 384 762 391 762 381 763 391 763 392 763 390 764 387 764 393 764 390 765 393 765 394 765 395 766 394 766 393 766 396 767 392 767 391 767 395 768 393 768 396 768 391 769 397 769 395 769 396 770 391 770 395 770 397 771 394 771 395 771 389 772 390 772 394 772 389 773 394 773 397 773 385 774 381 774 392 774 385 775 392 775 396 775 387 776 385 776 396 776 387 777 396 777 393 777 384 778 389 778 397 778 384 779 397 779 391 779 398 780 399 780 400 780 398 781 400 781 401 781 400 782 399 782 402 782 400 783 402 783 403 783 404 784 402 784 399 784 404 785 399 785 398 785 405 786 406 786 404 786 405 787 404 787 398 787 407 788 408 788 409 788 405 789 398 789 401 789 401 790 407 790 409 790 410 791 405 791 401 791 409 792 410 792 401 792 400 793 403 793 407 793 400 794 407 794 401 794 402 795 404 795 406 795 411 796 408 796 407 796 411 797 407 797 403 797 402 798 406 798 412 798 411 799 403 799 402 799 402 800 412 800 411 800 411 801 409 801 408 801 409 802 411 802 413 802 414 803 415 803 416 803 410 804 409 804 413 804 414 805 416 805 417 805 414 806 417 806 418 806 414 807 418 807 419 807 414 808 419 808 420 808 414 809 420 809 421 809 414 810 421 810 422 810 414 811 422 811 423 811 414 812 423 812 424 812 414 813 424 813 425 813 414 814 425 814 426 814 414 815 426 815 427 815 413 816 414 816 427 816 413 817 427 817 428 817 413 818 428 818 429 818 413 819 429 819 430 819 413 820 430 820 431 820 413 821 431 821 432 821 413 822 432 822 433 822 433 823 410 823 413 823 434 824 412 824 406 824 435 825 434 825 406 825 436 826 437 826 435 826 438 827 436 827 435 827 439 828 438 828 435 828 405 829 439 829 435 829 406 830 405 830 435 830 405 831 410 831 433 831 405 832 433 832 439 832 439 833 433 833 432 833 439 834 432 834 438 834 438 835 432 835 431 835 438 836 431 836 436 836 436 837 431 837 430 837 436 838 430 838 437 838 435 839 437 839 440 839 435 840 440 840 441 840 442 841 443 841 444 841 435 842 441 842 445 842 435 843 445 843 446 843 435 844 446 844 447 844 444 845 435 845 447 845 444 846 447 846 448 846 444 847 448 847 449 847 444 848 449 848 450 848 444 849 450 849 451 849 444 850 451 850 452 850 444 851 452 851 453 851 444 852 453 852 454 852 454 853 442 853 444 853 440 854 437 854 430 854 440 855 430 855 429 855 441 856 440 856 429 856 441 857 429 857 428 857 445 858 441 858 428 858 445 859 428 859 427 859 446 860 445 860 427 860 446 861 427 861 426 861 447 862 446 862 426 862 447 863 426 863 425 863 448 864 447 864 425 864 448 865 425 865 424 865 449 866 448 866 424 866 449 867 424 867 423 867 450 868 449 868 423 868 450 869 423 869 422 869 451 870 450 870 422 870 451 871 422 871 421 871 452 872 451 872 421 872 452 873 421 873 420 873 453 874 452 874 420 874 453 875 420 875 419 875 454 876 453 876 419 876 454 877 419 877 418 877 455 878 456 878 457 878 455 879 457 879 442 879 458 880 459 880 460 880 455 881 442 881 454 881 417 882 458 882 460 882 460 883 455 883 454 883 418 884 417 884 460 884 454 885 418 885 460 885 417 886 416 886 458 886 461 887 459 887 458 887 443 888 457 888 456 888 443 889 456 889 462 889 461 890 458 890 416 890 443 891 462 891 461 891 461 892 416 892 443 892 444 893 443 893 416 893 444 894 416 894 415 894 414 895 413 895 434 895 414 896 434 896 435 896 444 897 415 897 463 897 463 898 414 898 435 898 435 899 444 899 463 899 415 900 414 900 463 900 413 901 411 901 412 901 413 902 412 902 434 902 443 903 442 903 457 903 455 904 464 904 462 904 455 905 462 905 456 905 460 906 465 906 464 906 460 907 464 907 455 907 462 908 464 908 465 908 462 909 465 909 461 909 459 910 461 910 465 910 459 911 465 911 460 911</p>
                </triangles>
            </mesh>
        </geometry>
    </library_geometries>
    <library_visual_scenes>
        <visual_scene id="VisualSceneNode" name="VisualScene">
            <node id="node" name="node">
                <instance_geometry url="#shape0-lib"/>
            </node>
        </visual_scene>
    </library_visual_scenes>
    <scene>
        <instance_visual_scene url="#VisualSceneNode"/>
    </scene>
</COLLADA>
